<?xml version="1.0" encoding="UTF-8"?>
<svg version="1.1" xmlns="http://www.w3.org/2000/svg" width="174" height="36">
<path d="M0 0 C1.65 0 3.3 0 5 0 C5 6.6 5 13.2 5 20 C9.62 20 14.24 20 19 20 C19 18.68 19 17.36 19 16 C16.98177083 16.09765625 14.96354167 16.1953125 12.9453125 16.29296875 C12.30335937 16.19628906 11.66140625 16.09960938 11 16 C8.84057181 12.76085771 8.72767022 11.75140267 8.75 8 C8.74484375 7.13375 8.7396875 6.2675 8.734375 5.375 C9 3 9 3 11 0 C13.75 -0.328125 13.75 -0.328125 17 -0.25 C18.0725 -0.23453125 19.145 -0.2190625 20.25 -0.203125 C23 -0 23 -0 25 1 C25.02886984 4.97915159 25.04675406 8.95827653 25.0625 12.9375 C25.07087891 14.07380859 25.07925781 15.21011719 25.08789062 16.38085938 C25.09272461 18.00024414 25.09272461 18.00024414 25.09765625 19.65234375 C25.10551147 21.15269165 25.10551147 21.15269165 25.11352539 22.68334961 C25 25 25 25 24 26 C22.30441274 26.09932153 20.60474253 26.13080007 18.90625 26.1328125 C17.87628906 26.13410156 16.84632812 26.13539062 15.78515625 26.13671875 C14.15900391 26.13091797 14.15900391 26.13091797 12.5 26.125 C11.41589844 26.12886719 10.33179688 26.13273437 9.21484375 26.13671875 C8.18488281 26.13542969 7.15492187 26.13414063 6.09375 26.1328125 C5.14177734 26.13168457 4.18980469 26.13055664 3.20898438 26.12939453 C1 26 1 26 0 25 C-0.08737645 23.14630389 -0.10698153 21.28932459 -0.09765625 19.43359375 C-0.09443359 18.30888672 -0.09121094 17.18417969 -0.08789062 16.02539062 C-0.07951172 14.84138672 -0.07113281 13.65738281 -0.0625 12.4375 C-0.05798828 11.24962891 -0.05347656 10.06175781 -0.04882812 8.83789062 C-0.03699675 5.89187774 -0.02051287 2.94596319 0 0 Z M15 6 C15 7.32 15 8.64 15 10 C16.32 10 17.64 10 19 10 C19 8.68 19 7.36 19 6 C17.68 6 16.36 6 15 6 Z " fill="#2E8DA8" transform="translate(0,1)"/>
<path d="M0 0 C0 9.24 0 18.48 0 28 C-1.98 28 -3.96 28 -6 28 C-6.33 25.36 -6.66 22.72 -7 20 C-8.546875 20.3403125 -8.546875 20.3403125 -10.125 20.6875 C-14.5398476 21.0435361 -16.33326306 20.38764266 -20 18 C-22.69967727 13.95048409 -22.53437659 10.75094185 -22 6 C-20.7056092 2.79808592 -19.88307746 1.47193451 -16.84375 -0.15234375 C-11.35319066 -1.78895278 -5.62721752 -0.52590818 0 0 Z M-15.9375 6.6875 C-17.30816224 9.01402222 -17.30816224 9.01402222 -16.25 11.6875 C-15.1977169 13.89755147 -15.1977169 13.89755147 -14 15 C-11.58462162 15.41717279 -11.58462162 15.41717279 -9 15 C-6.9214392 13.42304368 -6.9214392 13.42304368 -6 11 C-6.66771183 8.60736593 -7.22097385 6.77902615 -9 5 C-12.18549797 4.58085553 -13.47124882 4.53947478 -15.9375 6.6875 Z " fill="#213F7D" transform="translate(155,8)"/>
<path d="M0 0 C1.98 0 3.96 0 6 0 C6 9.24 6 18.48 6 28 C3.66666667 28 1.33333333 28 -1 28 C-2.093125 28.226875 -3.18625 28.45375 -4.3125 28.6875 C-8.52641035 29.04461105 -9.79617607 28.66985327 -13 26 C-15.09111708 23.6300673 -15.95569007 21.99077013 -16.09765625 18.81640625 C-15.84943141 15.1293593 -15.40601664 12.62464099 -13.375 9.5 C-10.23784069 7.51863623 -7.68018481 7.20073735 -4 7 C-3.01 7.33 -2.02 7.66 -1 8 C-0.67 5.36 -0.34 2.72 0 0 Z M-10 15 C-10.33333333 18 -10.33333333 18 -10 21 C-8.11340125 23.30662599 -8.11340125 23.30662599 -5 23.3125 C-4.01 23.209375 -3.02 23.10625 -2 23 C0.35014158 20.162422 0.35014158 20.162422 -0.3125 16.875 C-0.70644321 14.11913578 -0.70644321 14.11913578 -2 13 C-6.49885769 12.53277305 -6.49885769 12.53277305 -10 15 Z " fill="#213F7D" transform="translate(105,0)"/>
<path d="M0 0 C2.1875 1.6875 2.1875 1.6875 4.1875 4.6875 C4.1875 6.9975 4.1875 9.3075 4.1875 11.6875 C-0.4325 12.0175 -5.0525 12.3475 -9.8125 12.6875 C-8.77843327 13.94699049 -8.77843327 13.94699049 -6.52734375 13.78515625 C-5.61082031 13.77355469 -4.69429687 13.76195312 -3.75 13.75 C-2.83089844 13.74097656 -1.91179688 13.73195313 -0.96484375 13.72265625 C-0.25457031 13.71105469 0.45570312 13.69945312 1.1875 13.6875 C1.8475 15.0075 2.5075 16.3275 3.1875 17.6875 C-1.273747 20.54727372 -4.56223281 21.19662182 -9.6875 20.3828125 C-13.49192933 19.13798085 -14.8935427 17.09210167 -16.8125 13.6875 C-17.60562983 9.74495171 -17.17730721 6.52655657 -15.5625 2.8125 C-11.44515928 -2.18712802 -5.84268872 -2.72658807 0 0 Z M-9.8125 4.6875 C-9.8125 5.3475 -9.8125 6.0075 -9.8125 6.6875 C-7.1725 6.6875 -4.5325 6.6875 -1.8125 6.6875 C-3.18735532 5.14583358 -3.18735532 5.14583358 -4.8125 3.6875 C-7.02331851 3.58209074 -7.02331851 3.58209074 -9.8125 4.6875 Z " fill="#213F7D" transform="translate(59.8125,8.3125)"/>
<path d="M0 0 C0.78503906 0.06703125 1.57007812 0.1340625 2.37890625 0.203125 C4.4375 0.75 4.4375 0.75 6.4375 3.75 C4.8125 5.3125 4.8125 5.3125 2.4375 6.75 C-0.8125 6.4375 -0.8125 6.4375 -3.5625 5.75 C-3.8925 6.41 -4.2225 7.07 -4.5625 7.75 C-2.57682292 7.9453125 -0.59114583 8.140625 1.39453125 8.3359375 C3.4375 8.75 3.4375 8.75 6.4375 10.75 C7.60588447 13.35639613 7.47879743 14.59231889 6.75 17.375 C5.19281324 20.19276651 4.50353112 20.83847723 1.4375 21.75 C-3.49151385 22.19809217 -6.66451805 21.93925796 -10.5625 18.75 C-10.5625 17.76 -10.5625 16.77 -10.5625 15.75 C-9.5725 15.09 -8.5825 14.43 -7.5625 13.75 C-6.7271875 14.245 -6.7271875 14.245 -5.875 14.75 C-3.25965478 15.8809601 -1.3818354 15.90662974 1.4375 15.75 C1.4375 15.09 1.4375 14.43 1.4375 13.75 C0.38949219 13.58564453 0.38949219 13.58564453 -0.6796875 13.41796875 C-1.58976562 13.25941406 -2.49984375 13.10085937 -3.4375 12.9375 C-4.34242187 12.78667969 -5.24734375 12.63585938 -6.1796875 12.48046875 C-8.5625 11.75 -8.5625 11.75 -10.5625 8.75 C-10.92717846 5.8325723 -11.03825659 4.38434213 -9.25 2 C-6.17231822 -0.27976428 -3.66394497 -0.36216919 0 0 Z " fill="#213F7D" transform="translate(124.5625,7.25)"/>
<path d="M0 0 C3.22991274 4.02815205 3.32936258 7.25273478 3.1875 12.3125 C3.16042969 13.56675781 3.13335937 14.82101563 3.10546875 16.11328125 C3.07066406 17.06589844 3.03585938 18.01851562 3 19 C1.02 19 -0.96 19 -3 19 C-3.33 14.71 -3.66 10.42 -4 6 C-8.47702364 4.93462795 -8.47702364 4.93462795 -11 5 C-11.33 9.62 -11.66 14.24 -12 19 C-13.65 19 -15.3 19 -17 19 C-17 12.4 -17 5.8 -17 -1 C-14.69 -1 -12.38 -1 -10 -1 C-5.95205481 -2.34931506 -3.92892826 -1.54350753 0 0 Z " fill="#213F7D" transform="translate(84,9)"/>
<path d="M0 0 C0.33 0.99 0.66 1.98 1 3 C0.01 4.485 0.01 4.485 -1 6 C-4.0625 6.125 -4.0625 6.125 -7 6 C-8.87824891 7.87824891 -8.39102397 11.03935276 -8.5625 13.5625 C-8.68818359 15.35880859 -8.68818359 15.35880859 -8.81640625 17.19140625 C-8.87699219 18.11824219 -8.93757812 19.04507812 -9 20 C-10.98 20 -12.96 20 -15 20 C-15 13.4 -15 6.8 -15 0 C-13.02 0 -11.04 0 -9 0 C-5.93109813 -1.53445094 -3.29905734 -0.54984289 0 0 Z " fill="#213F7D" transform="translate(173,8)"/>
<path d="M0 0 C1.98 0 3.96 0 6 0 C6 9.24 6 18.48 6 28 C4.02 28 2.04 28 0 28 C0 18.76 0 9.52 0 0 Z " fill="#223F7D" transform="translate(35,0)"/>
</svg>
